PathFileType	4	(X/Y/Z)	C:/Users/opensim2020/Desktop/walking_exp_matlab/subject02_walking06_straight_04.trc																																																																																																																									
DataRate	CameraRate	NumFrames	NumMarkers	Units	OrigDataRate	OrigDataStartFrame	OrigNumFrames																																																																																																																					
100	100	7	41	mm	100	2790	216																																																																																																																					
Frame#	Time	LFHD			RFHD			LBHD			RBHD			C7			T10			CLAV			STRN			RBAK			LSHO			LUPA			LELB			LFRM			LWRA			LWRB			LFIN			RSHO			RUPA			RELB			RFRM			RWRA			RWRB			RFIN			LASI			RASI			LPSI			RPSI			LTHI			LKNE			LTIB			LANK			LHEE			LTOE			RTHI			RKNE			RTIB			RANK			RHEE			RTOE			*39			*40		
		X1	Y1	Z1	X2	Y2	Z2	X3	Y3	Z3	X4	Y4	Z4	X5	Y5	Z5	X6	Y6	Z6	X7	Y7	Z7	X8	Y8	Z8	X9	Y9	Z9	X10	Y10	Z10	X11	Y11	Z11	X12	Y12	Z12	X13	Y13	Z13	X14	Y14	Z14	X15	Y15	Z15	X16	Y16	Z16	X17	Y17	Z17	X18	Y18	Z18	X19	Y19	Z19	X20	Y20	Z20	X21	Y21	Z21	X22	Y22	Z22	X23	Y23	Z23	X24	Y24	Z24	X25	Y25	Z25	X26	Y26	Z26	X27	Y27	Z27	X28	Y28	Z28	X29	Y29	Z29	X30	Y30	Z30	X31	Y31	Z31	X32	Y32	Z32	X33	Y33	Z33	X34	Y34	Z34	X35	Y35	Z35	X36	Y36	Z36	X37	Y37	Z37	X38	Y38	Z38	X39	Y39	Z39	X40	Y40	Z40	X41	Y41	Z41
																																																																																																																												
136	1.35	592.4754	1732.95801	1022.4538	586.55145	1708.60742	1163.96655	459.66599	1664.8252	1006.99963	440.74136	1639.41064	1147.15076	396.93057	1517.41455	1074.86743	355.05038	1237.52771	1085.71387	538.56299	1454.7688	1061.17432	599.24408	1286.36108	1066.02795	347.61688	1337.45044	1139.72876	466.09564	1496.54517	892.96472	475.56747	1297.30408	809.66632	496.74646	1156.12366	795.90088	541.94257	1030.58789	785.12762	633.38794	928.59546	815.04272	586.80939	915.97485	785.48077	624.78705	862.4433	779.75159	476.23453	1482.93494	1259.92883	444.5087	1292.24207	1342.61096	456.86356	1147.09937	1361.64441	483.2825	1030.8385	1384.45313	531.54541	903.33112	1373.89246	482.31244	901.56091	1401.28247	517.84546	838.086	1408.95215	579.00256	977.06641	934.85101	615.53687	978.11987	1185.73682	381.99603	1020.58264	1042.00659	392.46289	1026.95532	1157.66968	507.6908	665.55072	873.86743	487.95062	481.99152	885.1955	336.92673	376.22089	910.58496	201.87938	203.93332	950.33588	178.78766	195.25383	1014.37329	266.64453	73.90942	891.33447	586.53503	672.80286	1258.15051	602.75763	464.35699	1208.44934	570.5741	277.44244	1212.38647	552.09882	87.3785	1168.80176	515.51514	36.52668	1113.11279	704.89722	33.81078	1178.52832	490.25104	1799.03992	1111.05847	NaN	NaN	NaN
137	1.36	601.87158	1734.26831	1023.54633	596.11871	1709.8894	1164.91052	468.9498	1666.20154	1008.04639	450.30576	1640.9176	1148.2334	406.13947	1518.84924	1076.15112	364.06754	1239.21423	1087.78503	547.83838	1456.01416	1062.12732	608.14539	1287.47278	1066.93005	356.78705	1339.6582	1142.44678	474.78195	1497.54797	894.07202	482.53702	1297.82068	811.60242	500.50964	1156.44678	798.28607	540.87756	1029.70361	786.40045	628.13287	923.26855	814.79156	581.29077	913.47894	785.36322	615.96851	857.47095	779.6377	486.88464	1484.61267	1261.17078	456.43076	1293.92285	1344.46472	469.68112	1148.86389	1363.87646	497.97235	1032.74426	1386.52368	548.6048	906.34302	1375.15759	499.45706	903.44403	1402.59534	536.42737	841.08722	1410.26331	586.90942	978.85553	935.06781	623.9278	978.72107	1186.94727	390.40466	1022.11676	1044.29309	400.9588	1028.43774	1159.6073	522.18829	667.45734	874.29034	506.17767	483.73798	885.75812	356.59564	376.78644	912.73932	223.81781	202.41743	952.11041	200.53551	192.60344	1015.88	291.66565	75.21898	891.56598	591.21619	672.87756	1259.13184	604.45343	464.20074	1209.26611	570.67645	277.50928	1212.81287	552.05518	87.39458	1168.75146	515.55133	36.61646	1113.06055	704.88489	33.79238	1178.61572	499.8873	1800.60303	1112.21716	NaN	NaN	NaN
138	1.37	610.94458	1735.70227	1023.95117	605.54114	1711.39685	1165.56763	478.08777	1667.54199	1009.07391	459.71555	1642.3092	1149.30249	415.48358	1520.53442	1077.71753	372.93991	1240.875	1089.90833	557.06555	1457.16553	1062.97998	617.04901	1288.51404	1067.80579	366.10623	1341.62268	1144.59814	483.40906	1498.53418	895.15588	488.8082	1298.47571	813.28992	504.36212	1156.94678	800.72351	539.48572	1029.17444	787.53784	622.67987	918.59753	814.52704	574.79791	911.02667	785.19263	607.02466	853.19037	779.57861	497.39908	1486.46863	1262.2605	468.39423	1295.69775	1346.40454	483.02396	1150.2179	1365.35449	513.10162	1034.82959	1387.93018	565.74481	909.51587	1376.24268	516.77209	905.46594	1403.73804	555.15918	844.09601	1411.45972	594.96899	980.55383	935.36627	632.13013	979.39984	1188.26953	398.76804	1023.75275	1046.33411	409.36917	1029.82031	1161.38135	536.72961	669.41681	874.80872	523.93176	485.37244	886.41278	376.16684	376.79544	914.72192	246.30763	199.81061	953.60724	222.83554	189.0209	1017.17755	318.0011	75.31059	892.44806	595.49396	672.87939	1260.01831	605.98383	464.04333	1210.12854	570.64691	277.66815	1213.22705	551.82819	87.58463	1168.43811	515.5498	36.71225	1112.74707	705.00977	33.85277	1178.7489	508.99139	1801.76221	1112.90271	-2845.82104	1033.90491	3356.8877
139	1.38	620.49536	1737.24622	1024.55103	615.08679	1712.68982	1166.12561	487.43661	1668.94141	1009.85107	469.1713	1643.65479	1150.22827	424.87598	1521.85242	1078.86267	381.85718	1242.49182	1091.93311	566.29437	1458.23132	1063.81567	625.72668	1289.32776	1068.72729	375.47974	1343.46301	1146.25623	491.96014	1499.47644	896.22479	494.7186	1298.8689	814.96143	508.18338	1157.56519	802.44196	539.53217	1028.88367	788.35516	617.04413	914.54987	814.323	569.18597	909.57068	784.90753	597.81549	849.97784	779.36487	507.73541	1488.4248	1263.21802	480.46158	1297.52271	1348.26624	496.04611	1152.15955	1367.70349	528.32111	1037.09387	1389.38855	582.94189	912.77704	1377.12769	534.24365	907.6911	1404.88196	574.06549	847.29248	1412.37659	603.1261	982.25519	936.00446	640.383	980.35864	1189.7063	407.06482	1025.35144	1048.07874	417.6189	1031.06567	1162.92456	550.86871	671.59265	875.16589	541.20648	487.01141	887.0448	395.64737	376.15338	916.3327	269.58859	196.09698	954.88928	245.79347	184.45424	1018.25427	345.60852	74.53777	893.72467	599.26532	672.82819	1260.88989	607.49438	463.88571	1210.84656	570.73602	277.83847	1213.59766	551.87445	87.66619	1168.3645	515.51294	36.78383	1112.64685	704.98444	33.80016	1178.80151	518.34375	1802.87378	1113.22327	NaN	NaN	NaN
140	1.39	629.88702	1738.16309	1024.98096	624.64105	1713.90552	1166.47461	496.53897	1669.91541	1010.5802	478.68246	1644.8313	1150.91614	434.33542	1523.33972	1080.328	390.59964	1244.0155	1093.90015	575.45435	1459.19885	1064.5249	634.44775	1290.23486	1069.7052	384.43362	1345.49146	1148.83521	500.41647	1500.43372	897.25653	501.08002	1299.26196	816.63214	511.47244	1158.06873	804.23682	537.38593	1029.09387	789.34839	611.33191	911.05994	814.21844	563.34149	908.61713	784.61261	588.93518	847.33997	779.15088	518.16376	1490.20728	1264.0968	492.53891	1299.39392	1350.05444	509.29095	1154.08008	1369.6947	543.57434	1039.34106	1390.87244	600.19116	916.23102	1377.77234	551.84595	910.07935	1405.90771	593.01361	850.58118	1413.07544	611.54926	984.01154	937.01648	647.70789	981.07013	1191.32788	415.35553	1026.82813	1049.45007	425.75562	1032.14001	1164.22778	564.75861	673.85193	875.69177	558.09998	488.64633	887.74933	415.05908	374.77975	917.47754	293.49689	191.36566	955.99188	269.55472	178.79248	1019.21381	373.97699	73.06251	895.06256	601.98853	672.35651	1261.27441	609.10699	463.79822	1211.42297	571.17932	277.95215	1213.99243	551.9118	87.59291	1168.28394	515.45959	36.98767	1112.61841	704.8548	33.73097	1178.83545	527.93213	1804.17163	1113.99854	-2845.2019	1033.96619	3360.27979
141	1.4	638.88666	1738.82422	1025.34277	634.24927	1715.0481	1166.72705	505.58212	1671.11621	1011.33917	488.27365	1646.06616	1151.63269	443.63171	1524.61145	1081.37695	399.26929	1245.50696	1095.86511	584.5412	1460.14087	1065.20544	643.573	1291.29211	1070.64978	393.3457	1347.31775	1150.95374	508.91534	1501.20129	898.25677	507.21313	1299.9873	818.02631	514.7807	1158.64661	805.97589	536.14996	1029.47034	789.9978	605.6134	908.05737	814.10126	557.54718	908.23535	784.26843	580.15619	845.37756	778.93933	528.2359	1492.14136	1264.79602	504.58389	1301.30969	1351.78601	522.59937	1156.02368	1371.66321	558.96295	1041.83057	1392.20471	617.59937	919.81787	1378.27124	569.62878	912.60797	1406.84741	612.20319	853.99786	1413.63123	620.23828	985.69836	938.34686	655.29413	981.9873	1193.03052	423.71735	1028.11902	1050.35059	433.70517	1033.05945	1165.25647	578.23431	676.00647	876.19574	574.65662	490.24448	888.62109	434.38602	372.68518	918.25391	318.11636	185.75162	957.00989	293.98352	172.11465	1020.01465	403.2117	70.74434	896.48694	606.26331	672.69238	1261.93958	610.82849	463.63623	1211.95618	571.99207	278.02948	1214.25781	552.15216	87.62135	1168.44141	515.52466	37.05083	1112.50024	704.98334	33.7743	1178.94104	537.34393	1805.21277	1114.12354	-2845.12598	1033.93298	3360.24829
142	1.41	648.18384	1739.64526	1025.4375	643.89539	1716.07727	1166.8031	514.80444	1672.13647	1011.74609	497.87378	1647.23743	1152.17505	452.72971	1525.77271	1082.28918	407.91724	1246.86938	1097.58508	593.56262	1460.98938	1065.80396	651.65918	1291.7738	1071.57874	402.3425	1349.02002	1152.85498	517.34442	1501.83899	899.16638	512.76569	1300.53589	819.27771	517.88593	1159.38623	807.50916	534.9328	1029.85376	790.82648	600.14801	905.75525	814.09692	552.00165	907.9574	783.86725	571.91736	844.21802	778.73169	538.3197	1493.95264	1265.49609	516.58057	1303.20422	1353.34717	536.01221	1157.98486	1373.48877	574.60577	1044.40588	1393.29614	635.01855	923.39667	1378.54211	587.39874	915.25287	1407.68945	631.20239	857.73383	1414.04846	629.48999	987.79468	940.09998	662.66754	982.83795	1194.88403	432.03256	1029.38782	1050.9574	441.55685	1033.87219	1166.07373	591.57306	678.46423	876.76233	590.93988	491.75266	889.55872	453.84424	369.93179	918.75885	343.35959	179.36482	957.91248	319.51419	164.73987	1021.06738	433.0173	68.05534	897.50793	609.63171	672.70074	1262.32996	612.52661	463.46341	1212.41638	573.03162	278.06339	1214.44885	552.13458	87.76053	1168.28003	515.4408	37.09438	1112.36267	704.81982	33.66904	1178.9967	546.96918	1806.46179	1114.77063	-2845.83472	1033.70142	3356.84521
